HIERARCHY
ROOT Hips
{
    OFFSET   0.000000   0.000000   0.000000
    CHANNELS 6 Xposition Yposition Zposition Zrotation Xrotation Yrotation
    JOINT Chest
    {
        OFFSET   0.000000   8.007230   0.000000
        CHANNELS 3 Zrotation Xrotation Yrotation
        JOINT Chest2
        {
            OFFSET   0.000000  22.077100   0.000000
            CHANNELS 3 Zrotation Xrotation Yrotation
            JOINT Neck
            {
                OFFSET   0.000000  23.254700   0.000000
                CHANNELS 3 Zrotation Xrotation Yrotation
                JOINT Head
                {
                    OFFSET   0.000010  14.370000   1.956610
                    CHANNELS 3 Zrotation Xrotation Yrotation
                    End Site
                    {
                        OFFSET   0.000000  19.566000   0.000000
                    }
                }
            }
            JOINT LeftCollar
            {
                OFFSET   3.911900  19.017000  -0.467063
                CHANNELS 3 Zrotation Xrotation Yrotation
                JOINT LeftShoulder
                {
                    OFFSET  10.383700   0.000000   0.000000
                    CHANNELS 3 Zrotation Xrotation Yrotation
                    JOINT LeftElbow
                    {
                        OFFSET  26.662100   0.001671   0.000522
                        CHANNELS 3 Zrotation Xrotation Yrotation
                        JOINT LeftWrist
                        {
                            OFFSET  28.869000   0.000037  -0.000114
                            CHANNELS 3 Zrotation Xrotation Yrotation
                            JOINT LeftFinger0
                            {
                                OFFSET   2.044650  -2.323450   3.252850
                                CHANNELS 3 Zrotation Xrotation Yrotation
                                JOINT LeftFinger01
                                {
                                    OFFSET   3.088140   0.000000   0.000000
                                    CHANNELS 3 Zrotation Xrotation Yrotation
                                    JOINT LeftFinger02
                                    {
                                        OFFSET   2.639460   0.000000   0.000000
                                        CHANNELS 3 Zrotation Xrotation Yrotation
                                        End Site
                                        {
                                            OFFSET   2.582190   0.000000   0.000000
                                        }
                                    }
                                }
                            }
                            JOINT LeftFinger1
                            {
                                OFFSET   8.364480   0.000000   3.252850
                                CHANNELS 3 Zrotation Xrotation Yrotation
                                JOINT LeftFinger11
                                {
                                    OFFSET   4.646930   0.000000   0.000000
                                    CHANNELS 3 Zrotation Xrotation Yrotation
                                    JOINT LeftFinger12
                                    {
                                        OFFSET   2.323470   0.000000   0.000000
                                        CHANNELS 3 Zrotation Xrotation Yrotation
                                        End Site
                                        {
                                            OFFSET   2.273050   0.000000   0.000000
                                        }
                                    }
                                }
                            }
                            JOINT LeftFinger2
                            {
                                OFFSET   8.364490   0.000016   1.078090
                                CHANNELS 3 Zrotation Xrotation Yrotation
                                JOINT LeftFinger21
                                {
                                    OFFSET   5.111620   0.000000   0.000000
                                    CHANNELS 3 Zrotation Xrotation Yrotation
                                    JOINT LeftFinger22
                                    {
                                        OFFSET   2.788150   0.000013   0.000000
                                        CHANNELS 3 Zrotation Xrotation Yrotation
                                        End Site
                                        {
                                            OFFSET   2.727660   0.000000   0.000000
                                        }
                                    }
                                }
                            }
                            JOINT LeftFinger3
                            {
                                OFFSET   7.899780   0.000016  -1.078090
                                CHANNELS 3 Zrotation Xrotation Yrotation
                                JOINT LeftFinger31
                                {
                                    OFFSET   4.646930   0.000000   0.000000
                                    CHANNELS 3 Zrotation Xrotation Yrotation
                                    JOINT LeftFinger32
                                    {
                                        OFFSET   2.323470   0.000000   0.000000
                                        CHANNELS 3 Zrotation Xrotation Yrotation
                                        End Site
                                        {
                                            OFFSET   2.273050   0.000000   0.000000
                                        }
                                    }
                                }
                            }
                            JOINT LeftFinger4
                            {
                                OFFSET   7.435080   0.000000  -3.252850
                                CHANNELS 3 Zrotation Xrotation Yrotation
                                JOINT LeftFinger41
                                {
                                    OFFSET   3.717550   0.000000   0.000000
                                    CHANNELS 3 Zrotation Xrotation Yrotation
                                    JOINT LeftFinger42
                                    {
                                        OFFSET   1.858760   0.000000   0.000000
                                        CHANNELS 3 Zrotation Xrotation Yrotation
                                        End Site
                                        {
                                            OFFSET   1.818440   0.000000   0.000000
                                        }
                                    }
                                }
                            }
                        }
                    }
                }
            }
            JOINT RightCollar
            {
                OFFSET  -3.911900  19.017000  -0.467064
                CHANNELS 3 Zrotation Xrotation Yrotation
                JOINT RightShoulder
                {
                    OFFSET -10.383700   0.000000   0.000000
                    CHANNELS 3 Zrotation Xrotation Yrotation
                    JOINT RightElbow
                    {
                        OFFSET -26.662100   0.001633   0.000260
                        CHANNELS 3 Zrotation Xrotation Yrotation
                        JOINT RightWrist
                        {
                            OFFSET -28.869000  -0.000045  -0.000080
                            CHANNELS 3 Zrotation Xrotation Yrotation
                            JOINT RightFinger0
                            {
                                OFFSET  -2.044660  -2.323490   3.252850
                                CHANNELS 3 Zrotation Xrotation Yrotation
                                JOINT RightFinger01
                                {
                                    OFFSET  -3.088140   0.000000   0.000000
                                    CHANNELS 3 Zrotation Xrotation Yrotation
                                    JOINT RightFinger02
                                    {
                                        OFFSET  -2.639450   0.000000   0.000000
                                        CHANNELS 3 Zrotation Xrotation Yrotation
                                        End Site
                                        {
                                            OFFSET  -2.582190   0.000000   0.000000
                                        }
                                    }
                                }
                            }
                            JOINT RightFinger1
                            {
                                OFFSET  -8.364480   0.000000   3.252850
                                CHANNELS 3 Zrotation Xrotation Yrotation
                                JOINT RightFinger11
                                {
                                    OFFSET  -4.646920   0.000000   0.000000
                                    CHANNELS 3 Zrotation Xrotation Yrotation
                                    JOINT RightFinger12
                                    {
                                        OFFSET  -2.323470   0.000000   0.000000
                                        CHANNELS 3 Zrotation Xrotation Yrotation
                                        End Site
                                        {
                                            OFFSET  -2.273050   0.000000   0.000000
                                        }
                                    }
                                }
                            }
                            JOINT RightFinger2
                            {
                                OFFSET  -8.364480   0.000000   1.078090
                                CHANNELS 3 Zrotation Xrotation Yrotation
                                JOINT RightFinger21
                                {
                                    OFFSET  -5.111610   0.000000   0.000000
                                    CHANNELS 3 Zrotation Xrotation Yrotation
                                    JOINT RightFinger22
                                    {
                                        OFFSET  -2.788160   0.000000   0.000000
                                        CHANNELS 3 Zrotation Xrotation Yrotation
                                        End Site
                                        {
                                            OFFSET  -2.727660   0.000000   0.000000
                                        }
                                    }
                                }
                            }
                            JOINT RightFinger3
                            {
                                OFFSET  -7.899780   0.000000  -1.078090
                                CHANNELS 3 Zrotation Xrotation Yrotation
                                JOINT RightFinger31
                                {
                                    OFFSET  -4.646930   0.000000   0.000000
                                    CHANNELS 3 Zrotation Xrotation Yrotation
                                    JOINT RightFinger32
                                    {
                                        OFFSET  -2.323470   0.000000   0.000000
                                        CHANNELS 3 Zrotation Xrotation Yrotation
                                        End Site
                                        {
                                            OFFSET  -2.273050   0.000000   0.000000
                                        }
                                    }
                                }
                            }
                            JOINT RightFinger4
                            {
                                OFFSET  -7.435090   0.000000  -3.252850
                                CHANNELS 3 Zrotation Xrotation Yrotation
                                JOINT RightFinger41
                                {
                                    OFFSET  -3.717550   0.000000   0.000000
                                    CHANNELS 3 Zrotation Xrotation Yrotation
                                    JOINT RightFinger42
                                    {
                                        OFFSET  -1.858760   0.000000   0.000000
                                        CHANNELS 3 Zrotation Xrotation Yrotation
                                        End Site
                                        {
                                            OFFSET  -1.818440   0.000000   0.000000
                                        }
                                    }
                                }
                            }
                        }
                    }
                }
            }
        }
    }
    JOINT LeftHip
    {
        OFFSET   9.782990   0.000000   0.000000
        CHANNELS 3 Zrotation Xrotation Yrotation
        JOINT LeftKnee
        {
            OFFSET  -0.000063 -41.789100   0.001657
            CHANNELS 3 Zrotation Xrotation Yrotation
            JOINT LeftAnkle
            {
                OFFSET   0.000078 -41.133200  -0.000113
                CHANNELS 3 Zrotation Xrotation Yrotation
                JOINT LeftToe
                {
                    OFFSET   0.000000  -6.358970  14.674500
                    CHANNELS 3 Zrotation Xrotation Yrotation
                    End Site
                    {
                        OFFSET   0.000000   0.000000   3.913200
                    }
                }
            }
        }
    }
    JOINT RightHip
    {
        OFFSET  -9.782990   0.000000   0.000000
        CHANNELS 3 Zrotation Xrotation Yrotation
        JOINT RightKnee
        {
            OFFSET   0.000053 -41.789200   0.000277
            CHANNELS 3 Zrotation Xrotation Yrotation
            JOINT RightAnkle
            {
                OFFSET   0.000030 -41.133200  -0.000150
                CHANNELS 3 Zrotation Xrotation Yrotation
                JOINT RightToe
                {
                    OFFSET   0.000000  -6.358960  14.674500
                    CHANNELS 3 Zrotation Xrotation Yrotation
                    End Site
                    {
                        OFFSET   0.000000   0.000000   3.913200
                    }
                }
            }
        }
    }
}
MOTION
Frames: 6
Frame Time:   0.016667
  6.752970  90.050800  -0.601293 -10.052000 -21.420600 -15.639000  -2.043960  14.697200   8.296340  -6.679190  28.900000  18.064500   4.962330  -0.244480   0.021162   8.153360  -0.484307 -22.199400  -6.962150 -12.134300   0.232203 -65.968000  24.606200 -11.309600  -0.212195  -3.201610 -15.112200  10.984400  -2.783870   4.595750  41.908300  38.729600 -70.522700 -32.405200   0.000000   0.000000 -11.202600   0.003173   0.000000 -30.729800   4.958640  -8.273140 -25.436100   0.000367   0.005301 -17.805300  -0.002279   0.001108 -28.229800  -1.892720   3.520390 -34.110800   0.002722  -0.000158 -22.717800  -0.003875   0.001030 -27.823100  -1.867660   3.533720 -31.255500   0.001011  -0.000253 -20.816200   0.001241   0.003788 -28.551700  -1.912510   3.509670 -42.915300   0.000849  -0.000261 -28.581600   0.000577   0.000829   7.936160 -10.864000  12.971800  29.088400   9.611080  64.988400  -1.960020  -3.166030  -0.003092   8.634010  20.050100 -10.652700 -23.554800  20.526600  58.377600  54.347400  -0.006933   0.003943  29.535400   0.001286   0.003622  -1.532290  -0.885881  29.976800  -0.000000  -0.002956  -0.003260   0.001352  -0.002756  -0.003066  88.997500  -0.001135  -0.007827  96.990100  -0.007380  -0.008986  72.742600  -0.008158  -0.000205  88.996300  -5.001490  -0.086217  93.085300  -0.004771  -0.008373  69.814000  -0.009693  -0.002499  88.983400  -9.999660  -0.183296 110.000000  -0.002482  -0.005841  80.000000   0.001984  -0.010488   0.157140  26.029300  10.881300  -0.653775  -0.273191   5.264460   2.761970  -4.379000   4.848510   0.000000   0.000000   0.000000   1.629680  14.831500   2.466350  -3.559700  16.141500  -9.491900   5.899970  -6.340890  12.006900  -0.000000   0.000000   0.000000
  6.773440  90.051800  -0.604245 -10.057500 -21.391700 -15.639000  -2.030660  14.698100   8.280790  -6.647140  28.905100  18.028300   4.919800  -0.353979   0.030419   8.083990  -0.701917 -21.865800  -6.955720 -12.120900   0.229826 -65.901500  24.661200 -11.372600  -0.210994  -3.243130 -15.156800  11.002600  -2.818650   4.559450  41.823900  38.679600 -70.432200 -32.495100   0.000000   0.000031 -11.247600   0.003156   0.000000 -30.778500   4.900520  -8.162200 -25.468700   0.000592   0.005394 -17.828100  -0.002345   0.001402 -28.230200  -1.955320   3.636180 -34.146300   0.002646  -0.000156 -22.741400  -0.003838   0.000974 -27.827200  -1.929660   3.649830 -31.302100   0.000984  -0.000253 -20.847200   0.001229   0.003741 -28.582600  -1.977710   3.624050 -42.967800   0.000850  -0.000260 -28.616500   0.000578   0.000781   7.984100 -10.859400  12.984000  29.265800   9.616140  64.863700  -2.075020  -3.068430  -0.003042   8.490500  20.036500 -10.528000 -23.513400  20.441500  58.323900  54.280800  -0.006891   0.003754  29.491000   0.001271   0.003596  -1.531640  -0.884246  29.964400  -0.000000  -0.003035  -0.003225   0.001274  -0.002769  -0.002979  88.997500  -0.001095  -0.007854  96.983300  -0.007556  -0.009295  72.737500  -0.008401  -0.000227  88.996300  -5.001470  -0.086381  93.037000  -0.004951  -0.008665  69.777700  -0.009727  -0.002419  88.983400  -9.999560  -0.183368 110.000000  -0.002304  -0.005910  80.000000   0.001961  -0.010680   0.165628  26.053800  10.849700  -0.679977  -0.358194   5.278380   2.773110  -4.364330   4.858970   0.000000   0.000000   0.000000   1.626420  14.784600   2.462120  -3.569340  16.169200  -9.475200   5.917660  -6.351280  11.995300  -0.000000   0.000000  -0.000000
  6.792220  90.052600  -0.606564 -10.062100 -21.364000 -15.641100  -2.016690  14.698800   8.266590  -6.614270  28.909800  17.994800   4.877830  -0.457849   0.039057   8.015430  -0.908481 -21.544300  -6.948250 -12.104500   0.226969 -65.832800  24.721300 -11.443400  -0.203497  -3.281700 -15.219500  11.022900  -2.864280   4.523570  41.739800  38.629500 -70.342000 -32.560000   0.000000   0.000061 -11.280000   0.003138   0.000000 -30.813000   4.858150  -8.081670 -25.491800   0.000813   0.005489 -17.844200  -0.002409   0.001695 -28.230000  -2.000210   3.719240 -34.171900   0.002570  -0.000155 -22.758500  -0.003803   0.000920 -27.829400  -1.974120   3.733140 -31.334700   0.000959  -0.000253 -20.868900   0.001218   0.003696 -28.604600  -2.024470   3.706100 -43.005400   0.000850  -0.000260 -28.641600   0.000578   0.000734   8.031360 -10.854500  12.991600  29.446500   9.621440  64.733500  -2.193040  -2.990880  -0.003007   8.374170  20.040500 -10.408500 -23.503700  20.435100  58.305500  54.160600  -0.006849   0.003541  29.411000   0.001246   0.003573  -1.531000  -0.882611  29.952000  -0.000000  -0.003117  -0.003190   0.001090  -0.002781  -0.002893  88.997500  -0.001053  -0.007879  96.976500  -0.007733  -0.009598  72.732400  -0.008645  -0.000248  88.996300  -5.001440  -0.086543  92.988700  -0.005131  -0.008960  69.741500  -0.009759  -0.002339  88.983400  -9.999450  -0.183434 110.000000  -0.002125  -0.005979  80.000000   0.001943  -0.010874   0.162450  26.058500  10.830200  -0.688480  -0.393758   5.295370   2.785350  -4.349670   4.868700   0.000000   0.000000   0.000000   1.624610  14.738800   2.458380  -3.579700  16.196700  -9.458970   5.932580  -6.361670  11.986300  -0.000000   0.000000  -0.000000
  6.809010  90.053500  -0.608523 -10.065000 -21.336500 -15.642400  -2.002080  14.696300   8.253730  -6.579720  28.908300  17.963400   4.838840  -0.552706   0.046788   7.951070  -1.096800 -21.243900  -6.938380 -12.084400   0.224093 -65.762100  24.790800 -11.517800  -0.187958  -3.318780 -15.302400  11.044500  -2.919130   4.488450  41.851100  38.690200 -70.448100 -32.470600   0.000000   0.000031 -11.235300   0.003103  -0.000000 -30.783000   4.926240  -8.205510 -25.473900   0.001027   0.005590 -17.831700  -0.002468   0.001983 -28.231900  -1.928790   3.586820 -34.150800   0.002498  -0.000156 -22.744400  -0.003769   0.000864 -27.830100  -1.903520   3.600290 -31.313100   0.000936  -0.000255 -20.854500   0.001203   0.003653 -28.607900  -1.950910   3.574860 -43.003700   0.000850  -0.000260 -28.640400   0.000578   0.000686   8.068110 -10.844800  12.976900  29.653600   9.632190  64.609000  -2.316880  -2.930860  -0.003089   8.204130  20.053100 -10.276200 -23.531300  20.662700  58.397900  54.013100  -0.006812   0.003314  29.312800   0.001210   0.003550  -1.516930  -0.873766  29.968400  -0.000000  -0.003202  -0.003154   0.000964  -0.002790  -0.002801  88.997400  -0.001013  -0.007912  97.001500  -0.007901  -0.009889  72.751200  -0.008898  -0.000278  88.996300  -5.001430  -0.086703  92.989800  -0.005323  -0.009266  69.742300  -0.009791  -0.002264  88.983400  -9.999350  -0.183494 110.000000  -0.001955  -0.006059  80.000000   0.001942  -0.011077   0.161294  25.906900  10.813300  -0.671199  -0.265738   5.312170   2.795240  -4.351990   4.878720  -0.000000   0.000000  -0.000000   1.625360  14.694100   2.452850  -3.591090  16.222600  -9.443190   5.945250  -6.371790  11.980800  -0.000000   0.000000  -0.000000
  6.823460  90.054300  -0.609461 -10.064500 -21.306600 -15.641600  -1.986030  14.687400   8.239580  -6.540030  28.894300  17.927600   4.801400  -0.639750   0.053738   7.891400  -1.269670 -20.967600  -6.927180 -12.056700   0.221120 -65.692600  24.864100 -11.596400  -0.164035  -3.349550 -15.403500  11.068400  -2.984010   4.455540  41.963000  38.750800 -70.554800 -32.349500   0.000000  -0.000000 -11.174800   0.003068   0.000000 -30.745800   5.018690  -8.366390 -25.455900   0.001239   0.005694 -17.819100  -0.002525   0.002269 -28.235400  -1.841170   3.423960 -34.129600   0.002426  -0.000156 -22.730300  -0.003737   0.000810 -27.832500  -1.817040   3.436820 -31.291500   0.000913  -0.000256 -20.840200   0.001189   0.003613 -28.612800  -1.863670   3.411780 -43.002000   0.000850  -0.000259 -28.639300   0.000578   0.000638   8.103330 -10.827400  12.946400  29.880200   9.652940  64.470700  -2.458780  -2.848240  -0.003171   7.968090  20.067300 -10.115700 -23.574500  20.983900  58.543700  53.919200  -0.006772   0.003070  29.250200   0.001166   0.003524  -1.424870  -0.823153  29.991200  -0.000000  -0.003290  -0.003120   0.000505  -0.002799  -0.002708  88.997400  -0.000976  -0.007951  97.068600  -0.008066  -0.010184  72.801500  -0.009150  -0.000316  88.996200  -5.001420  -0.086859  92.997700  -0.005514  -0.009577  69.748300  -0.009822  -0.002190  88.983400  -9.999240  -0.183546 110.000000  -0.001783  -0.006139  80.000000   0.001941  -0.011283   0.169290  25.686900  10.790900  -0.650474  -0.087289   5.326990   2.802610  -4.356420   4.884270   0.000000   0.000000  -0.000000   1.626930  14.650200   2.448200  -3.602110  16.244500  -9.432480   5.954630  -6.381640  11.974300   0.000000   0.000000   0.000000
  6.835050  90.055200  -0.609030 -10.055900 -21.271400 -15.631200  -1.968690  14.671700   8.221600  -6.495120  28.867400  17.882300   4.765830  -0.718204   0.059868   7.834320  -1.425880 -20.723000  -6.915450 -12.016500   0.218034 -65.625300  24.937900 -11.678700  -0.129947  -3.371020 -15.523400  11.095900  -3.060020   4.426540  41.967400  38.749300 -70.556100 -32.311800   0.000000   0.000035 -11.156000   0.003042  -0.000000 -30.746400   5.048160  -8.409570 -25.459900   0.001450   0.005799 -17.821900  -0.002583   0.002559 -28.238000  -1.822300   3.388420 -34.138700   0.002351  -0.000156 -22.736300  -0.003705   0.000756 -27.835400  -1.798550   3.401080 -31.301600   0.000889  -0.000255 -20.846900   0.001178   0.003573 -28.633700  -1.847740   3.374620 -43.032100   0.000850  -0.000259 -28.659400   0.000579   0.000591   8.147140 -10.797200  12.911100  30.125500   9.692570  64.302900  -2.631110  -2.690270  -0.003098   7.589870  20.005500  -9.893900 -23.593200  21.151400  58.621400  53.985200  -0.006717   0.002809  29.294100   0.001117   0.003489  -1.052940  -0.608904  30.000200  -0.000000  -0.003381  -0.003092  -0.004935  -0.002813  -0.002615  88.997400  -0.000943  -0.007997  97.172100  -0.008234  -0.010503  72.879100  -0.009394  -0.000361  88.996200  -5.001400  -0.087011  93.074200  -0.005695  -0.009892  69.805800  -0.009851  -0.002118  88.983300  -9.999130  -0.183587 110.000000  -0.001599  -0.006212  80.000000   0.001938  -0.011485   0.172115  25.573200  10.773300  -0.647750  -0.013553   5.336100   2.807010  -4.360960   4.883810  -0.000000   0.000000   0.000000   1.627610  14.606300   2.446560  -3.611230  16.260300  -9.430000   5.959660  -6.391010  11.963000  -0.000000   0.000000  -0.000000
